<svg id="Capa_1" enable-background="new 0 0 512 512" height="512" viewBox="0 0 512 512" width="512" xmlns="http://www.w3.org/2000/svg"><g><g><path d="m42.653 237.825c-19.33 0-32.859-12.082-32.859-31.412l.62-110.15c0-11.892 3.016-22.124 12.081-28.449 5.67-3.956 12.566-6.277 20.005-6.277h427c19.33 0 35 15.67 35 35v110c0 7.936-2.641 15.255-7.093 21.127-6.391 8.429-16.192 10.782-27.586 10.782-32.104-.001-427.168-.621-427.168-.621z" fill="#ee6161"/><path d="m498.22 226.54c-6.32 9.07-16.83 15-28.72 15h-427c-19.33 0-35-15.67-35-35v-110c0-11.89 5.93-22.4 15-28.72v138.72c0 11.02 8.97 20 20 20z" fill="#e94444"/><g><path d="m383.395 315.502s-15.436.119-18.232 7.527v-6.434c0-11.178-21.493-14.589-21.493-14.589s-19.334 3.411-19.334 14.589c-.007-5.415-.015-6.606-.022-12.021 0-11.178-19.313-13.759-19.313-13.759s-18.443-.154-20.798 8.445v-8.445-56.885c0-11.178-20.413-17.526-20.413-17.526s-16.849 7.661-16.849 18.839l-3.565 73.459-9.324 3.547c-13.88 0-24.127 7.441-24.127 21.434l-.331 27.723c0 21.572 9.291 40.946 26.573 53.666l3.999 2.943c8.977 6.788 16.46 15.654 17.403 26.85.129 1.536 1.382 2.73 2.923 2.73l114.357-.496c1.622 0 2.936-1.314 2.936-2.936 0-4.263 4.679-5.004 5.608-9.114 1.646-7.282 4.713-14.207 9.066-20.353 6.811-9.616 10.472-21.136 10.472-32.951v-51.737c-.001-10.854-19.536-14.506-19.536-14.506z" fill="#f1d0a5"/><g fill="#f2bb88"><path d="m270.997 435.05c-1.595 0-3.036-.971-3.605-2.461-3.739-9.789-10.454-18.674-19.453-25.474l-4.155-3.068c-13.269-9.76-21.178-25.476-21.178-42.058v-27.976c0-5.288 4.203-9.75 9.49-9.771h.102 11.184l6.423-6.145-6.423-9.389h-11.184c-1.992 0-3.92.258-5.779.7.011-.008.02-.018.031-.027-11.17 2.523-19.52 13.227-19.379 24.66v15.534 12.414c0 21.579 10.214 41.851 27.495 54.576l4 2.939c8.983 6.796 15.624 17.151 16.569 28.348.13 1.537 1.383 2.732 2.926 2.732h120.984c1.631 0 2.939-1.32 2.939-2.939 0-4.272.479-8.492 1.411-12.595z"/><path d="m284.198 233.924v9.061c0-5.301-2.058-10.127-5.425-13.735-5.354-5.737-14.989-1.874-14.989 5.973v125.665c0 5.634-4.567 10.201-10.201 10.201-5.634 0-10.201-4.567-10.201-10.201v-126.964c0-11.172 9.139-20.233 20.401-20.233 11.276 0 20.415 9.061 20.415 20.233z"/><g><path d="m324.314 313.639c0-4.634-1.57-8.905-4.211-12.318-5.011-6.474-15.439-2.735-15.439 5.452v28.208c0 4.606-3.734 8.34-8.34 8.34h-3.829c-4.61 0-8.345-3.74-8.34-8.349l.042-35.715c2.356-8.595 10.278-14.926 19.702-14.926.259 0 .518 0 .764.013 10.926.401 19.65 9.307 19.65 20.233.014 5.412.014 14.473.001 9.062z"/><path d="m365.169 316.59v9.061c0-5.301-2.058-10.127-5.425-13.735-5.354-5.737-14.989-1.874-14.989 5.973v17.26c0 4.606-3.734 8.34-8.34 8.34h-3.683c-4.606 0-8.34-3.734-8.34-8.34v-19.958c.535-10.397 9.987-19.034 20.362-18.835 11.275.001 20.415 9.063 20.415 20.234z"/><path d="m402.929 330.001v9.061c0-6.858-5.283-12.9-11.728-16.412-4.287-2.337-9.514.838-9.514 5.72v6.86c0 4.561-3.698 8.259-8.259 8.259-4.561 0-8.259-3.698-8.259-8.259v-12.207c2.968-8.072 11.461-13.637 20.401-12.544 9.76 1.076 17.359 9.412 17.359 19.522z"/></g></g></g></g><g><path d="m504.269 134.985c-4.105.123-7.269 3.704-7.269 7.811v63.741c0 15.188-12.312 27.5-27.5 27.5h-177.798c.247-14.845-12.516-27.949-27.914-27.967-14.944-.118-28.018 12.66-27.914 27.967h-193.374c-15.188 0-27.5-12.312-27.5-27.5v-110c0-15.188 12.312-27.5 27.5-27.5h67.592c4.107 0 7.688-3.164 7.811-7.269.128-4.247-3.278-7.731-7.497-7.731h-67.906c-23.472 0-42.5 19.028-42.5 42.5v110c0 23.472 19.028 42.5 42.5 42.5h193.375v52.043h-3.673c-17.993 0-32.632 14.73-32.632 32.836v27.957c0 23.869 11.422 46.525 30.554 60.607 8.66 5.297 16.84 15.884 17.537 25.882.461 5.473 4.931 9.6 10.396 9.6h120.824c5.736 0 10.606-4.692 10.605-10.428-.002-10.326 3.143-20.224 9.092-28.624 8.237-11.256 12.526-26.982 11.851-41.535 0-4.142-3.358-7.5-7.5-7.5s-7.5 3.358-7.5 7.5c.65 10.707-2.302 23.458-9.092 32.865-6.872 9.702-10.872 20.933-11.693 32.722h-112.605c-2.003-12.078-11.55-25.146-23.023-32.563-15.307-11.267-24.446-29.408-24.446-48.527v-27.957c0-9.835 7.91-17.836 17.632-17.836h3.673v44.89c0 4.107 3.164 7.688 7.269 7.811 4.247.128 7.731-3.278 7.731-7.497v-127.474c0-7.024 5.793-12.739 12.914-12.739s12.914 5.715 12.914 12.739v99.438c0 4.107 3.164 7.688 7.269 7.811 4.247.128 7.731-3.278 7.731-7.497v-29.285c-.077-5.544 5.067-12.627 12.198-12.563 7.121 0 12.914 5.714 12.914 12.749.001 6.979.075 21.929.093 29.124.014 4.132 3.367 7.475 7.5 7.475h.025c4.138 0 7.489-3.362 7.475-7.5l-.058-17.346c.141-6.904 5.868-12.48 12.9-12.48 7.121 0 12.914 5.714 12.914 12.738v16.898c0 4.107 3.164 7.688 7.269 7.811 4.247.128 7.731-3.278 7.731-7.497v-4.88c-.065-4.886 4.461-11.139 10.75-11.071 6.626 0 12.017 5.451 12.017 12.151v11.557c0 4.107 3.164 7.688 7.269 7.811 4.247.128 7.731-3.278 7.731-7.497v-11.872c0-14.971-12.12-27.151-27.017-27.151-4.559 0-8.94 1.192-12.81 3.297-4.16-10.134-14.178-17.297-25.854-17.297-5.644 0-10.903 1.674-15.3 4.547-4.332-9.749-14.154-16.568-25.549-16.568-4.329 0-8.479.998-12.198 2.799v-30.477h177.797c23.472 0 42.5-19.028 42.5-42.5v-64.056c0-4.215-3.483-7.621-7.731-7.493z"/><path d="m469.5 54.037h-323.545c-4.107 0-7.688 3.164-7.811 7.269-.128 4.247 3.278 7.731 7.497 7.731h323.859c15.188 0 27.5 12.312 27.5 27.5v10.141c0 4.107 3.164 7.688 7.269 7.811 4.247.128 7.731-3.278 7.731-7.497v-10.455c0-23.472-19.028-42.5-42.5-42.5z"/><path d="m384.299 177.351v-51.345c0-4.107-3.164-7.688-7.269-7.811-4.247-.128-7.731 3.278-7.731 7.497v51.345c0 4.107 3.164 7.688 7.269 7.811 4.247.127 7.731-3.279 7.731-7.497z"/><path d="m478.971 133.427c4.219 0 7.624-3.483 7.497-7.731-.123-4.105-3.704-7.269-7.811-7.269h-21.254c-4.142 0-7.5 3.358-7.5 7.5v51.188c0 4.142 3.358 7.5 7.5 7.5h21.254c4.107 0 7.688-3.164 7.811-7.269.128-4.247-3.278-7.731-7.497-7.731h-14.068v-10.594h12.164c4.107 0 7.688-3.164 7.811-7.269.128-4.247-3.278-7.731-7.497-7.731h-12.478v-10.594z"/><path d="m165.08 118.191h-14.536c-4.142 0-7.5 3.358-7.5 7.5v23.788.039 27.655c0 1.046.16 2.099.57 3.061 1.23 2.893 3.992 4.617 6.93 4.617h.033s13.792-.062 17.593-.062c11.803 0 21.405-9.602 21.405-21.405 0-6.396-2.835-12.13-7.296-16.056 1.971-3.368 2.977-7.365 2.567-11.628-.965-10.021-9.699-17.509-19.766-17.509zm.275 15c2.29 0 4.338 1.67 4.561 3.949.255 2.615-1.802 4.825-4.365 4.825-.79-.003-3.677.014-7.506.014v-8.788zm2.815 36.598c-1.886 0-6.223.015-10.126.03v-12.833c.081-.009 9.456-.008 10.126-.008 3.532 0 6.405 2.874 6.405 6.405s-2.873 6.406-6.405 6.406z"/><path d="m416.871 118.191h-14.536c-4.142 0-7.5 3.358-7.5 7.5v51.481c0 1.046.16 2.099.57 3.061 1.23 2.893 3.992 4.617 6.93 4.617h.033s13.792-.062 17.593-.062c11.803 0 21.405-9.602 21.405-21.405 0-6.396-2.835-12.13-7.297-16.056 1.971-3.368 2.977-7.366 2.567-11.628-.964-10.02-9.698-17.508-19.765-17.508zm.275 15c2.29 0 4.338 1.67 4.561 3.949.255 2.615-1.802 4.825-4.365 4.825-.79-.003-3.677.014-7.506.014v-8.788zm2.815 36.598c-1.886 0-6.223.015-10.126.03v-12.833c.081-.009 9.456-.008 10.126-.008 3.532 0 6.405 2.874 6.405 6.405s-2.873 6.406-6.405 6.406z"/><path d="m282.184 133.488c4.767-.847 9.505.14 13.409 2.714 3.336 2.199 7.925 1.628 10.34-1.555 2.625-3.459 1.78-8.361-1.769-10.759-6.252-4.224-13.698-6.191-21.324-5.591-17.051 1.341-30.459 15.754-30.644 32.857-.201 18.546 14.827 33.697 33.328 33.697 7.953-.165 16.312-3.08 22.018-9.971 2.662-3.173 2.248-7.904-.925-10.566-3.174-2.663-7.904-2.249-10.566.925-2.123 2.437-5.131 4.329-10.527 4.612-11.049 0-19.847-9.828-18.11-21.201 1.164-7.624 7.177-13.813 14.77-15.162z"/><path d="m51.031 169.851c-4.728 0-9.271-1.849-12.227-4.96-2.764-2.909-7.296-3.574-10.436-1.074-3.422 2.724-3.787 7.723-.897 10.913 5.829 6.433 14.416 10.122 23.56 10.122 11.393 0 20.967-7.309 22.765-17.378 1.36-7.618-2.046-17.551-15.683-22.581-5.528-2.039-10.725-4.238-13.146-5.285-1.026-.444-1.668-1.509-1.516-2.617.001-.006.002-.011.002-.017.103-.714.637-2.463 3.377-3.289 6.723-2.026 13.06 2.94 13.258 3.098 3.171 2.623 7.869 2.201 10.521-.954 2.665-3.171 2.255-7.902-.915-10.567-.505-.424-12.543-10.353-27.19-5.939-7.524 2.267-12.85 8.213-13.899 15.52-.988 6.88 1.996 13.5 7.786 17.275 1.162.731 7.83 3.55 16.53 6.848 1.575.581 6.67 2.721 6.107 5.872-.43 2.41-3.61 5.013-7.997 5.013z"/><path d="m222.614 169.851c-4.728 0-9.272-1.849-12.228-4.96-2.764-2.909-7.296-3.574-10.436-1.074-3.422 2.724-3.787 7.723-.897 10.913 5.829 6.433 14.417 10.122 23.56 10.122 11.393 0 20.966-7.309 22.764-17.378 1.36-7.618-2.045-17.551-15.683-22.581-5.528-2.039-10.724-4.238-13.146-5.285-1.026-.444-1.669-1.509-1.516-2.617.001-.006.002-.011.002-.017.103-.713.637-2.463 3.377-3.289 6.715-2.026 13.049 2.931 13.258 3.097 3.17 2.624 7.869 2.203 10.521-.954 2.665-3.17 2.255-7.902-.916-10.567-.505-.424-12.543-10.353-27.19-5.939-7.524 2.267-12.851 8.213-13.899 15.52-.988 6.88 1.996 13.5 7.787 17.275 1.161.732 7.83 3.55 16.529 6.848 1.575.581 6.669 2.721 6.107 5.871-.427 2.412-3.607 5.015-7.994 5.015z"/><path d="m112.898 168.7c-1.543.777-3.206 1.161-5.15 1.151-2.075-.003-3.873-.508-5.495-1.544-3.865-2.469-4.642-4.535-4.642-7.068v-35.233c0-4.107-3.164-7.688-7.269-7.811-4.247-.128-7.731 3.278-7.731 7.497v35.547c0 8.175 3.892 14.806 11.566 19.708 2.864 1.819 7.959 3.822 13.588 3.903 4.254 0 8.25-.927 11.879-2.754 8.939-4.502 13.863-11.923 13.863-20.896v-35.195c0-4.107-3.164-7.688-7.269-7.811-4.247-.128-7.731 3.278-7.731 7.497v35.51c.001 2.311-.666 5.009-5.609 7.499z"/><path d="m360.763 139.117c0-11.538-9.728-20.925-21.686-20.925h-13.727c-.003 0-.006 0-.008 0h-.008c-4.125-.214-7.5 2.991-7.5 7.121v51.724c0 4.107 3.164 7.688 7.269 7.811 4.247.128 7.731-3.278 7.731-7.497v-11.86l14.8 16.816c1.482 1.685 3.552 2.545 5.633 2.545 1.792 0 3.592-.639 5.03-1.94 3.078-2.785 3.143-7.622.4-10.738l-11.89-13.509c8.151-3.013 13.956-10.637 13.956-19.548zm-21.686-5.926c3.624 0 6.686 2.713 6.686 5.925s-3.062 5.926-6.686 5.926c-1.468 0-3.826.009-6.174.02-.014-2.487-.018-6.33-.031-11.871z"/></g></g></svg>